<?xml version="1.0" encoding="UTF-8"?>
<svg width="32px" height="32px" viewBox="0 0 32 32" version="1.1" xmlns="http://www.w3.org/2000/svg" xmlns:xlink="http://www.w3.org/1999/xlink">
    <!-- Generator: Sketch 59.1 (86144) - https://sketch.com -->
    <title>kg</title>
    <desc>Created with Sketch.</desc>
    <g id="kg" stroke="none" stroke-width="1" fill="none" fill-rule="evenodd">
        <rect id="Rectangle" fill="#004459" x="0" y="0" width="32" height="32" rx="4"></rect>
        <path d="M24.9173247,14.9319618 L24.877963,15.3105502 C26.5354504,15.6920014 26.6871721,15.7306475 26.6105956,16.4549036 L26.344367,18.9468602 C26.1346762,19.5566094 25.3359906,20.3753338 23.5632805,20.3753338 C20.3842826,20.3753338 19.0903545,17.5012105 19.4145522,14.3787503 C19.7373185,11.2555745 21.5644194,8.64767968 24.3641132,8.64767968 C25.5056039,8.64767968 26.7251025,9.10427597 27.1638071,9.82853215 C27.5817573,10.4955349 27.8472702,11.2369671 27.9811001,12.2847053 L28.3818743,12.2847053 L28.7626097,8 L28.3818743,8 C27.6776568,8.99048473 26.2871136,8 24.4979432,8 C20.8029484,8 17.909502,10.7996938 17.5094435,14.569118 C17.1287081,18.1481745 19.0903545,21.0430522 22.7653105,21.0430522 C23.8889096,21.0430522 25.0890851,20.795431 26.1919297,20.3953725 L26.154715,20.8526845 C26.0759915,21.597695 25.9593375,22.1831116 25.7725482,22.6754913 C25.1420445,24.3315474 23.3686188,24.6292653 21.5357926,23.8176976 C19.7022508,23.0039829 16.2341229,20.2143085 11.6273669,13.8649006 L15.5685515,10.0181842 C16.4631367,9.14220638 16.939056,8.76147092 18.4040287,8.57181886 L18.4426748,8.18965206 L13.740735,8.18965206 L13.7013732,8.57181886 C14.2166543,8.66700272 15.2064234,8.87597783 14.9774096,9.42918931 C14.4070221,10.7810865 11.8742724,13.5786333 9.68432785,14.226313 L10.1609628,9.71474091 C10.236108,8.99048473 10.1996089,8.95326999 11.9315259,8.57181886 L11.9687406,8.18965206 L8.29450027,8.18965206 C0.126579525,8.18965206 1.15499468,14.1318448 4.41056915,14.1318448 C5.40033822,14.1318448 6.14248611,13.617995 5.97072575,12.7048025 L5.78178935,12.626079 C5.09689492,12.9889227 3.36354663,13.122037 3.24903972,11.5225187 C3.07799503,9.12431468 5.89629626,8.76147092 8.6759514,8.76147092 L7.57167543,19.3297426 C7.49509893,20.0532831 7.43784548,20.0897822 5.53416817,20.4712333 L5.49623775,20.8526845 L10.9224338,20.8526845 L10.9596485,20.4712333 C9.13183202,20.0897822 9.07457857,20.0532831 9.15187073,19.3297426 L9.64639743,14.569118 L10.2182163,14.569118 C15.1076612,22.3942337 19.490413,24.3945262 22.177747,24.7709676 C24.8672279,25.1452621 25.850556,24.3973889 26.5204214,23.6359179 C27.1917181,22.8737313 27.6569024,21.5819503 27.791448,20.2822969 L28.1907909,16.4549036 C28.268083,15.7306475 28.2287213,15.6920014 29.9620696,15.3105502 L30,14.9319618 L24.9173247,14.9319618 Z" id="KG" fill="#FFFFFF"></path>
    </g>
</svg>